<svg xmlns="http://www.w3.org/2000/svg" width="240" height="240" fill="none">
  <path fill="#000" d="M197 3.51775C187.605 5.52515 180.561 12.4491 174 19l-24 24c-21.186 21.1861-42.52 42.2396-63.2816 63.83-9.4033 9.779-20.3533 18.67-28.8959 29.209-3.6717 4.53-4.9269 10.34-8.4598 14.906-4.3646 5.641-13.826 7.603-20.3627 9.711-3.2128 1.036-6.8413 1.635-8.9144 4.572-3.3816 4.79-4.5767 12.245-6.4189 17.772-2.1047 6.314-3.9227 12.831-6.42364 19-1.77116 4.369-4.67351 8.189-5.13812 13C.912807 227.344 10.4547 237.874 23 236.906c5.2111-.402 9.2875-3.24 14-5.149 8.0905-3.277 16.7117-5.671 25-8.424 4.1167-1.367 10.3424-2.012 13.1566-5.612 5.8366-7.465 3.8839-20.588 11.1212-27.084 4.8444-4.348 11.7985-5.346 16.7222-9.745 30.055-26.853 57.496-57.388 86-85.892l27-27c5.064-5.064 11.106-9.966 15.034-16C246.524 28.2024 224.318-2.31923 197 3.51775z"/>
  <path fill="#383838" d="M123 92.7932c7.338 7.9368 15.351 15.3508 23 22.9998 12.571-8.855 23.129-22.129 34-32.9998C191.188 71.6048 209 58 214.5 44.5c-5.586-3.935-11.659-4.6946-16.5-9.5-2.023-2.0082-2.83-8-6-8-2.422 0-5.398 3.2913-7 4.8133-4.436 4.2132-8.674 8.654-13 12.9799l-31 31c-5.78 5.7796-11.308 12.2859-18 17z"/>
  <path fill="#FFC83D" d="M212 49.5c9.5-14 6.668-28.2079-9.5-28.5-7.167-.1295-13.5 7.2361-13.5 7.2361L200.5 39.5l11.5 10zM183.995 51.1759c-3.87 1.3615-7.18 6.009-9.995 8.8241-7.325 7.3243-14.82 14.5151-21.981 22-1.457 1.5234-8.435 10.3642-1.871 10.3642 4.159 0 8.214-5.7272 10.852-8.3642l19-19c2.674-2.6743 6.572-5.5391 8.248-8.9954 1.468-3.0246-.992-5.9755-4.253-4.8287zM122.02 96.1759c-3.516 1.2752-4.618 4.8431-2.643 7.8241 3.407 5.144 9.16 9.74 13.623 13.98 1.818 1.727 4.157 4.412 6.981 3.674 3.361-.877 4.952-4.724 3.357-7.654-2.983-5.478-9.742-10.777-14.338-14.9406-1.912-1.7324-4.189-3.8957-6.98-2.8835z"/>
  <path fill="#987D3A" d="M125 95l1 1-1-1zm1 1l1 1-1-1z"/>
  <path fill="#3E300F" d="M119 97l1 1-1-1z"/>
  <path fill="#987D3A" d="M127 97l1 1-1-1z"/>
  <path fill="#40320F" d="M118 98l1 1-1-1z"/>
  <path fill="#987D3A" d="M128 98l1 1-1-1z"/>
  <path fill="#3F320F" d="M117 99l1 1-1-1z"/>
  <path fill="#987D3A" d="M129 99l1 1-1-1z"/>
  <path fill="#3F320F" d="M116 100l1 1-1-1z"/>
  <path fill="#987D3A" d="M130 100l1 1-1-1z"/>
  <path fill="#7F6931" d="M116 101l1 1-1-1z"/>
  <path fill="#987D3A" d="M131 101l1 1-1-1z"/>
  <path fill="#383838" d="M115 103.346c-5.111 1.274-10.397 9.051-14 12.654-11.8251 11.825-27.6861 23.569-34.7338 39-3.0614 6.703.9992 10.381 5.7346 14.985 2.4747 2.405 5.2143 5.446 8.9992 4.821 7.534-1.245 14.8464-7.68 20-12.807L124 139c3.603-3.603 11.38-8.889 12.654-14 .606-2.431-1.232-4.339-2.717-6-4.002-4.476-8.461-8.935-12.937-12.937-1.661-1.485-3.569-3.323-6-2.717z"/>
  <path fill="#987D3A" d="M117 102l1 1-1-1zm15 0l1 1-1-1zm-14 1l1 1-1-1zm15 0l1 1-1-1zm-14 1l1 1-1-1zm15 0l1 1-1-1zm-14 1l1 1-1-1zm15 0l1 1-1-1zm-14 1l1 1-1-1zm15 0l1 1-1-1zm-14 1l1 1-1-1zm15 0l1 1-1-1zm-14 1l1 1-1-1z"/>
  <path fill="#997E3A" d="M138 108l1 1-1-1z"/>
  <path fill="#987D3A" d="M124 109l1 1-1-1z"/>
  <path fill="#A0833B" d="M139 109l1 1-1-1z"/>
  <path fill="#987D3A" d="M125 110l1 1-1-1z"/>
  <path fill="#9F833B" d="M140 110l1 1-1-1z"/>
  <path fill="#987D3A" d="M126 111l1 1-1-1z"/>
  <path fill="#9F833B" d="M141 111l1 1-1-1z"/>
  <path fill="#987D3A" d="M127 112l1 1-1-1z"/>
  <path fill="#9F833B" d="M142 112l1 1-1-1z"/>
  <path fill="#987D3A" d="M128 113l1 1-1-1z"/>
  <path fill="#A0833B" d="M143 113l1 1-1-1z"/>
  <path fill="#987D3A" d="M129 114l1 1-1-1z"/>
  <path fill="#A0833B" d="M144 114l1 1-1-1z"/>
  <path fill="#987D3A" d="M130 115l1 1-1-1zM131 116l1 1-1-1zm1 1l1 1-1-1zm1 1l1 1-1-1zm1 1l1 1-1-1zm1 1l1 1-1-1zm1 1l1 1-1-1zm1 1l1 1-1-1z"/>
  <path fill="#76612D" d="M138 123l1 1-1-1z"/>
  <path fill="#FFC83D" d="M63.0046 163.346c-11.6566 2.967 2.6803 19.915 8.9908 18.308 11.6566-2.967-2.6803-19.915-8.9908-18.308z"/>
  <path fill="#907738" d="M56 168l1 1-1-1z"/>
  <path fill="#555" d="M53 169l1 1-1-1z"/>
  <path fill="#CCC" d="M23 211c5.7777-4.07 13.1233-9.537 17-15.5 2.4389-3.752 2.0661-9.439 7.0046-11.173 4.9207-1.727 10.5731 5.162 8.0432 9.629-2.431 4.293-7.9343 3.786-11.5478 6.544-5.5092 4.205-10.5217 10.852-14.5 16.5 7.8368-1.157 15.4985-4.5 23-7 3.3059-1.102 7.741-1.844 10.49-4.086 2.7274-2.224 3.4502-6.735 4.51-9.914 1.103-3.309 3.3012-7.459 3.1644-11-.1949-5.042-8.75-13.028-13.1644-14.879-3.7994-1.593-8.4778 1.142-12 2.455-3.2652 1.216-7.8501 1.763-10.49 4.152-2.4984 2.261-3.0139 6.224-4.0254 9.272-2.6639 8.027-6.2337 16.649-7.4846 25z"/>
  <path fill="#555" d="M50 170l1 1-1-1zm-3 1l1 1-1-1z"/>
  <path fill="#565656" d="M44 172l1 1-1-1z"/>
  <path fill="#8C8C8C" d="M45 172l1 1-1-1z"/>
  <path fill="#565656" d="M41 173l1 1-1-1z"/>
  <path fill="#8C8C8C" d="M42 173l1 1-1-1z"/>
  <path fill="#565656" d="M38 174l1 1-1-1z"/>
  <path fill="#8C8C8C" d="M39 174l1 1-1-1z"/>
  <path fill="#555" d="M35 175l1 1-1-1z"/>
  <path fill="#4E4E4E" d="M33 176l1 1-1-1z"/>
  <path fill="#7B601D" d="M77 177l1 1-1-1zm-1 1l1 1-1-1z"/>
  <path fill="#595959" d="M32 179l1 1-1-1z"/>
  <path fill="#7B601D" d="M75 179l1 1-1-1zm-1 1l1 1-1-1zm-1 1l1 1-1-1z"/>
  <path fill="#5A5A5A" d="M31 182l1 1-1-1z"/>
  <path fill="#7B601D" d="M72 182l1 1-1-1z"/>
  <path fill="#7A652E" d="M71 183l1 1-1-1z"/>
  <path fill="#757575" d="M45.1481 185.029c-3.3852 1.975-2.7135 6.657-5.1481 9.471-5 6.5-13.9775 11.807-19.1451 18.955-2.1222 2.936-1.7336 8.322 3.125 6.887 2.8199-.833 5.0429-3.687 7.1096-5.628 4.9349-4.636 9.3763-9.976 14.4861-14.396 2.803-2.425 7.2741-2.089 9.2446-5.466 3.4864-5.974-3.5996-13.367-9.6721-9.823z"/>
  <path fill="#565656" d="M30 185l1 1-1-1z"/>
  <path fill="#7D7D7D" d="M70 185l1 1-1-1z"/>
  <path fill="#8C8C8C" d="M30 186l1 1-1-1z"/>
  <path fill="#454545" d="M70 186l1 1-1-1z"/>
  <path fill="#565656" d="M29 188l1 1-1-1z"/>
  <path fill="#7D7D7D" d="M69 188l1 1-1-1z"/>
  <path fill="#454545" d="M69 189l1 1-1-1z"/>
  <path fill="#555" d="M28 191l1 1-1-1z"/>
  <path fill="#7D7D7D" d="M68 191l1 1-1-1z"/>
  <path fill="#464646" d="M68 192l1 1-1-1z"/>
  <path fill="#525252" d="M27 194l1 1-1-1z"/>
  <path fill="#7D7D7D" d="M67 194l1 1-1-1z"/>
  <path fill="#B4B4B4" d="M27.3333 195.667c-.0555.055-.1111 1.111.3334.666.0555-.055.1111-1.111-.3334-.666z"/>
  <path fill="#464646" d="M67 195l1 1-1-1z"/>
  <path fill="#525252" d="M26 197l1 1-1-1z"/>
  <path fill="#7D7D7D" d="M66 197l1 1-1-1z"/>
  <path fill="#8A8A8A" d="M26 198l1 1-1-1z"/>
  <path fill="#464646" d="M66 198l1 1-1-1z"/>
  <path fill="#525252" d="M25 200l1 1-1-1z"/>
  <path fill="#7E7E7E" d="M65 200l1 1-1-1z"/>
  <path fill="#B4B4B4" d="M25.3333 201.667c-.0555.055-.1111 1.111.3334.666.0555-.055.1111-1.111-.3334-.666z"/>
  <path fill="#464646" d="M65 201l1 1-1-1z"/>
  <path fill="#505050" d="M24 203l1 1-1-1z"/>
  <path fill="#7E7E7E" d="M64 203l1 1-1-1z"/>
  <path fill="#878787" d="M24 204l1 1-1-1z"/>
  <path fill="#454545" d="M64 204l1 1-1-1z"/>
  <path fill="#505050" d="M23 206l1 1-1-1z"/>
  <path fill="#858585" d="M62 206l1 1-1-1z"/>
  <path fill="#3F3F3F" d="M63 206l1 1-1-1z"/>
  <path fill="#868686" d="M23 207l1 1-1-1z"/>
  <path fill="#848484" d="M59 207l1 1-1-1z"/>
  <path fill="#4B4B4B" d="M60 207l1 1-1-1z"/>
  <path fill="#838383" d="M56 208l1 1-1-1z"/>
  <path fill="#4C4C4C" d="M57 208l1 1-1-1z"/>
  <path fill="#4F4F4F" d="M22 209l1 1-1-1z"/>
  <path fill="gray" d="M53 209l1 1-1-1z"/>
  <path fill="#4A4A4A" d="M54 209l1 1-1-1z"/>
  <path fill="gray" d="M50 210l1 1-1-1z"/>
  <path fill="#494949" d="M51 210l1 1-1-1z"/>
  <path fill="gray" d="M47 211l1 1-1-1z"/>
  <path fill="#494949" d="M48 211l1 1-1-1z"/>
  <path fill="#7D7D7D" d="M44 212l1 1-1-1z"/>
  <path fill="#454545" d="M45 212l1 1-1-1z"/>
  <path fill="#7E7E7E" d="M41 213l1 1-1-1z"/>
  <path fill="#454545" d="M42 213l1 1-1-1z"/>
  <path fill="#7E7E7E" d="M38 214l1 1-1-1z"/>
  <path fill="#454545" d="M39 214l1 1-1-1z"/>
  <path fill="#7A7A7A" d="M35 215l1 1-1-1z"/>
  <path fill="#191919" d="M36.6667 215.333c-.4445.445.6111.389.6666.334.4445-.445-.6111-.389-.6666-.334z"/>
  <path fill="#7A7A7A" d="M32 216l1 1-1-1z"/>
  <path fill="#434343" d="M33 216l1 1-1-1zm-3 1l1 1-1-1z"/>
</svg>
